<?xml version="1.0" standalone="no"?>
<!DOCTYPE svg PUBLIC "-//W3C//DTD SVG 20010904//EN"
 "http://www.w3.org/TR/2001/REC-SVG-20010904/DTD/svg10.dtd">
<svg version="1.0" xmlns="http://www.w3.org/2000/svg"
 width="300.000000pt" height="300.000000pt" viewBox="0 0 300.000000 300.000000"
 preserveAspectRatio="xMidYMid meet">
<metadata>
Created by potrace 1.11, written by Peter Selinger 2001-2013
</metadata>
<g transform="translate(0.000000,300.000000) scale(0.100000,-0.100000)"
fill="#000000" stroke="none">
<path d="M0 1500 l0 -1500 1500 0 1500 0 0 1500 0 1500 -1500 0 -1500 0 0
-1500z m1606 1065 c104 -24 231 -114 273 -194 14 -25 8 -26 -22 -6 -80 52
-257 56 -487 12 -157 -31 -260 -43 -260 -30 0 6 13 28 29 49 107 146 288 211
467 169z m129 -313 c17 -9 73 -46 124 -82 103 -72 99 -63 70 -171 l-9 -37 -88
44 c-124 63 -192 78 -342 78 -146 0 -217 -15 -333 -73 l-79 -38 -9 25 c-5 13
-12 58 -16 98 l-6 73 49 22 c38 16 90 24 229 35 99 7 209 20 245 28 87 19 129
18 165 -2z m-15 -360 c41 -13 57 -24 63 -42 7 -20 -33 -156 -187 -635 -108
-335 -203 -616 -211 -624 -13 -13 -22 -13 -62 -2 -76 20 -98 33 -101 62 -4 32
374 1217 396 1242 18 21 31 21 102 -1z m-693 -165 c29 -30 53 -59 53 -66 0
-15 -59 -80 -242 -267 -109 -111 -137 -145 -132 -160 4 -10 89 -103 190 -205
101 -102 184 -191 184 -199 0 -23 -95 -110 -121 -110 -18 0 -87 63 -278 254
-220 220 -253 257 -248 277 7 28 506 529 526 529 8 0 38 -24 68 -53z m1295
-204 c167 -167 258 -265 258 -278 0 -13 -89 -109 -252 -272 -202 -203 -258
-253 -279 -253 -33 0 -109 79 -109 112 0 16 55 78 185 208 102 103 185 193
185 202 0 9 -83 101 -185 206 -121 124 -185 197 -185 211 0 34 81 115 120 120
2 1 120 -115 262 -256z"/>
</g>
</svg>
